<svg width="40" height="40" viewBox="0 0 40 40" fill="none" xmlns="http://www.w3.org/2000/svg">
<g clip-path="url(#clip0_86_481)">
<path d="M15.8033 32.9021C16.2949 32.8371 16.7916 32.9704 17.1833 33.2721L18.9883 34.6571C19.5849 35.1154 20.4149 35.1154 21.0099 34.6571L22.8833 33.2188C23.2333 32.9504 23.6749 32.8321 24.1116 32.8904L26.4549 33.1988C27.1999 33.2971 27.9183 32.8821 28.2066 32.1871L29.1083 30.0071C29.2766 29.5988 29.5999 29.2754 30.0083 29.1071L32.1883 28.2054C32.8833 27.9188 33.2983 27.1987 33.1999 26.4538L32.9033 24.1954C32.8383 23.7038 32.9716 23.2071 33.2733 22.8154L34.6583 21.0104C35.1166 20.4138 35.1166 19.5837 34.6583 18.9887L33.2199 17.1154C32.9516 16.7654 32.8333 16.3237 32.8916 15.8871L33.1999 13.5438C33.2983 12.7988 32.8833 12.0804 32.1883 11.7921L30.0083 10.8904C29.5999 10.7221 29.2766 10.3987 29.1083 9.99042L28.2066 7.81042C27.9199 7.11542 27.1999 6.70042 26.4549 6.79875L24.1116 7.10708C23.6749 7.16708 23.2333 7.04875 22.8849 6.78208L21.0116 5.34375C20.4149 4.88542 19.5849 4.88542 18.9899 5.34375L17.1166 6.78208C16.7666 7.04875 16.3249 7.16708 15.8883 7.11042L13.5449 6.80208C12.7999 6.70375 12.0816 7.11875 11.7933 7.81375L10.8933 9.99375C10.7233 10.4004 10.3999 10.7237 9.99326 10.8937L7.81326 11.7938C7.11826 12.0821 6.70326 12.8004 6.80159 13.5454L7.10993 15.8888C7.16659 16.3254 7.04826 16.7671 6.78159 17.1154L5.34326 18.9887C4.88493 19.5854 4.88493 20.4154 5.34326 21.0104L6.78159 22.8837C7.04993 23.2337 7.16826 23.6754 7.10993 24.1121L6.80159 26.4554C6.70326 27.2004 7.11826 27.9188 7.81326 28.2071L9.99326 29.1088C10.4016 29.2771 10.7249 29.6004 10.8933 30.0087L11.7949 32.1888C12.0816 32.8838 12.8016 33.2988 13.5466 33.2004L15.8033 32.9021Z" fill="url(#paint0_linear_86_481)" stroke="white" stroke-width="2" stroke-linecap="round" stroke-linejoin="round"/>
<path d="M24.6649 17.668L18.8299 23.503L15.3315 20.003" stroke="white" stroke-width="2" stroke-linecap="round" stroke-linejoin="round"/>
</g>
<defs>
<linearGradient id="paint0_linear_86_481" x1="25.5012" y1="60.5015" x2="20.5014" y2="17.5003" gradientUnits="userSpaceOnUse">
<stop stop-color="white"/>
<stop offset="1" stop-color="white" stop-opacity="0"/>
</linearGradient>
<clipPath id="clip0_86_481">
<rect width="40" height="40" fill="white"/>
</clipPath>
</defs>
</svg>
