<svg width="40" height="40" viewBox="0 0 40 40" fill="none" xmlns="http://www.w3.org/2000/svg">
<g clip-path="url(#clip0_86_503)">
<mask id="mask0_86_503" style="mask-type:alpha" maskUnits="userSpaceOnUse" x="4" y="2" width="32" height="34">
<path d="M33.3333 10H6.66667C5.74619 10 5 10.7462 5 11.6667V13.3333C5 14.2538 5.74619 15 6.66667 15H33.3333C34.2538 15 35 14.2538 35 13.3333V11.6667C35 10.7462 34.2538 10 33.3333 10Z" stroke="#323232" stroke-width="2" stroke-linecap="round" stroke-linejoin="round"/>
<path d="M33.3334 15V31.6667C33.3334 32.5507 32.9822 33.3986 32.3571 34.0237C31.732 34.6488 30.8841 35 30.0001 35H10.0001C9.11603 35 8.26818 34.6488 7.64306 34.0237C7.01794 33.3986 6.66675 32.5507 6.66675 31.6667V15" fill="url(#paint0_linear_86_503)"/>
<path d="M33.3334 15V31.6667C33.3334 32.5507 32.9822 33.3986 32.3571 34.0237C31.732 34.6488 30.8841 35 30.0001 35H10.0001C9.11603 35 8.26818 34.6488 7.64306 34.0237C7.01794 33.3986 6.66675 32.5507 6.66675 31.6667V15" stroke="#323232" stroke-width="2" stroke-linecap="round" stroke-linejoin="round"/>
<path d="M16.6666 3.33301C17.5506 3.33301 18.3985 3.6842 19.0236 4.30932C19.6487 4.93444 19.9999 5.78229 19.9999 6.66634V9.99967H16.6666C15.7825 9.99967 14.9347 9.64849 14.3096 9.02336C13.6844 8.39824 13.3333 7.5504 13.3333 6.66634C13.3333 5.78229 13.6844 4.93444 14.3096 4.30932C14.9347 3.6842 15.7825 3.33301 16.6666 3.33301Z" stroke="#323232" stroke-width="2" stroke-linecap="round" stroke-linejoin="round"/>
<path d="M23.3333 3.33301C24.2174 3.33301 25.0652 3.6842 25.6904 4.30932C26.3155 4.93444 26.6667 5.78229 26.6667 6.66634C26.6667 7.5504 26.3155 8.39824 25.6904 9.02336C25.0652 9.64849 24.2174 9.99967 23.3333 9.99967H20V6.66634C20 5.78229 20.3512 4.93444 20.9763 4.30932C21.6014 3.6842 22.4493 3.33301 23.3333 3.33301Z" stroke="#323232" stroke-width="2" stroke-linecap="round" stroke-linejoin="round"/>
<path d="M19.6701 20.9555L20.0001 21.2905L20.3301 20.9554C20.6279 20.6529 20.983 20.4125 21.3746 20.2485C21.7663 20.0845 22.1866 20 22.6112 20C23.0358 20 23.4562 20.0845 23.8478 20.2485C24.2395 20.4125 24.5945 20.6529 24.8924 20.9554C25.4958 21.5755 25.8334 22.4065 25.8334 23.2717C25.8334 24.1369 25.4958 24.968 24.8924 25.588L22.3284 28.1916C22.0244 28.5004 21.662 28.7457 21.2623 28.9131C20.8625 29.0805 20.4335 29.1668 20.0001 29.1668C19.5668 29.1668 19.1377 29.0805 18.738 28.9131C18.3383 28.7457 17.9759 28.5004 17.6719 28.1916L15.1077 25.5881C14.5044 24.9681 14.1667 24.137 14.1667 23.2718C14.1667 22.4067 14.5044 21.5756 15.1077 20.9555C15.4056 20.653 15.7607 20.4126 16.1523 20.2486C16.544 20.0846 16.9643 20.0001 17.3889 20.0001C17.8135 20.0001 18.2339 20.0846 18.6255 20.2486C19.0171 20.4126 19.3722 20.6529 19.6701 20.9555Z" stroke="#323232" stroke-width="2" stroke-linecap="round" stroke-linejoin="round"/>
</mask>
<g mask="url(#mask0_86_503)">
<path d="M0 0H40V40H0V0Z" fill="url(#paint1_linear_86_503)"/>
</g>
</g>
<defs>
<linearGradient id="paint0_linear_86_503" x1="24.889" y1="52" x2="22.3743" y2="23.165" gradientUnits="userSpaceOnUse">
<stop stop-color="#F94892"/>
<stop offset="1" stop-color="#FF7F3F" stop-opacity="0"/>
</linearGradient>
<linearGradient id="paint1_linear_86_503" x1="43.6069" y1="40" x2="-11.7802" y2="31.6156" gradientUnits="userSpaceOnUse">
<stop stop-color="white"/>
<stop offset="1" stop-color="white"/>
</linearGradient>
<clipPath id="clip0_86_503">
<rect width="40" height="40" fill="white"/>
</clipPath>
</defs>
</svg>
