<svg width="40" height="40" viewBox="0 0 40 40" fill="none" xmlns="http://www.w3.org/2000/svg">
<g clip-path="url(#clip0_86_493)">
<path d="M5 27.5V18.2662C5 17.1414 5.25298 16.0311 5.74021 15.0173C6.22745 14.0035 6.93646 13.1123 7.81475 12.4097L14.7942 6.82613C16.2718 5.64402 18.1077 5 20 5C21.8923 5 23.7282 5.64402 25.2058 6.82613L32.1852 12.4097C33.0635 13.1123 33.7726 14.0035 34.2598 15.0173C34.747 16.031 35 17.1414 35 18.2662V27.5C35 29.4891 34.2098 31.3968 32.8033 32.8033C31.3968 34.2098 29.4891 35 27.5 35H12.5C10.5109 35 8.60322 34.2098 7.1967 32.8033C5.79018 31.3968 5 29.4891 5 27.5Z" fill="url(#paint0_linear_86_493)"/>
<path d="M5 27.5V18.2662C5 17.1414 5.25298 16.0311 5.74021 15.0173C6.22745 14.0035 6.93646 13.1123 7.81475 12.4097L14.7942 6.82613C16.2718 5.64402 18.1077 5 20 5C21.8923 5 23.7282 5.64402 25.2058 6.82613L32.1852 12.4097C33.0635 13.1123 33.7726 14.0035 34.2598 15.0173C34.747 16.031 35 17.1414 35 18.2662V27.5C35 29.4891 34.2098 31.3968 32.8033 32.8033C31.3968 34.2098 29.4891 35 27.5 35H12.5C10.5109 35 8.60322 34.2098 7.1967 32.8033C5.79018 31.3968 5 29.4891 5 27.5Z" stroke="white" stroke-width="2" stroke-linecap="round" stroke-linejoin="round"/>
<path d="M5 27.5V18.2662C5 17.1414 5.25298 16.0311 5.74021 15.0173C6.22745 14.0035 6.93646 13.1123 7.81475 12.4097L14.7942 6.82613C16.2718 5.64402 18.1077 5 20 5C21.8923 5 23.7282 5.64402 25.2058 6.82613L32.1852 12.4097C33.0635 13.1123 33.7726 14.0035 34.2598 15.0173C34.747 16.031 35 17.1414 35 18.2662V27.5C35 29.4891 34.2098 31.3968 32.8033 32.8033C31.3968 34.2098 29.4891 35 27.5 35H12.5C10.5109 35 8.60322 34.2098 7.1967 32.8033C5.79018 31.3968 5 29.4891 5 27.5Z" stroke="url(#paint1_linear_86_493)" stroke-width="2" stroke-linecap="round" stroke-linejoin="round"/>
<path d="M14.4504 17.7849C14.0797 18.1569 13.7889 18.6018 13.5972 19.0908C13.4056 19.5797 13.3166 20.1028 13.3358 20.6276C13.355 21.1524 13.4819 21.6677 13.7087 22.1413C13.9355 22.6149 14.2574 23.0369 14.6542 23.3808L18.9592 27.1122C19.2481 27.3625 19.6175 27.5004 19.9998 27.5004C20.3821 27.5004 20.7516 27.3625 21.0405 27.1122L25.3457 23.3806C25.7425 23.0367 26.0643 22.6148 26.2911 22.1412C26.5179 21.6676 26.6448 21.1524 26.664 20.6276C26.6832 20.1029 26.5942 19.5798 26.4026 19.0909C26.211 18.602 25.9208 18.1578 25.5502 17.7858C24.8709 17.1041 23.9584 16.7054 22.9968 16.6702C22.0351 16.6349 21.0958 16.9657 20.3685 17.5958L19.9999 17.9151L19.6313 17.5956C18.9042 16.9653 17.9651 16.6344 17.0035 16.6695C16.042 16.7047 15.1295 17.1033 14.4504 17.7849Z" stroke="white" stroke-width="2" stroke-linecap="round" stroke-linejoin="round"/>
<path d="M14.4504 17.7849C14.0797 18.1569 13.7889 18.6018 13.5972 19.0908C13.4056 19.5797 13.3166 20.1028 13.3358 20.6276C13.355 21.1524 13.4819 21.6677 13.7087 22.1413C13.9355 22.6149 14.2574 23.0369 14.6542 23.3808L18.9592 27.1122C19.2481 27.3625 19.6175 27.5004 19.9998 27.5004C20.3821 27.5004 20.7516 27.3625 21.0405 27.1122L25.3457 23.3806C25.7425 23.0367 26.0643 22.6148 26.2911 22.1412C26.5179 21.6676 26.6448 21.1524 26.664 20.6276C26.6832 20.1029 26.5942 19.5798 26.4026 19.0909C26.211 18.602 25.9208 18.1578 25.5502 17.7858C24.8709 17.1041 23.9584 16.7054 22.9968 16.6702C22.0351 16.6349 21.0958 16.9657 20.3685 17.5958L19.9999 17.9151L19.6313 17.5956C18.9042 16.9653 17.9651 16.6344 17.0035 16.6695C16.042 16.7047 15.1295 17.1033 14.4504 17.7849Z" stroke="url(#paint2_linear_86_493)" stroke-width="2" stroke-linecap="round" stroke-linejoin="round"/>
</g>
<defs>
<linearGradient id="paint0_linear_86_493" x1="25.5" y1="60.5" x2="20.5" y2="17.5" gradientUnits="userSpaceOnUse">
<stop stop-color="white"/>
<stop offset="1" stop-color="white" stop-opacity="0"/>
</linearGradient>
<linearGradient id="paint1_linear_86_493" x1="37.7052" y1="35" x2="-3.83514" y2="28.7117" gradientUnits="userSpaceOnUse">
<stop stop-color="white"/>
<stop offset="1" stop-color="white"/>
</linearGradient>
<linearGradient id="paint2_linear_86_493" x1="27.8688" y1="27.5004" x2="9.61701" y2="24.0999" gradientUnits="userSpaceOnUse">
<stop stop-color="white"/>
<stop offset="1" stop-color="white"/>
</linearGradient>
<clipPath id="clip0_86_493">
<rect width="40" height="40" fill="white"/>
</clipPath>
</defs>
</svg>
