<svg width="28" height="20" viewBox="0 0 28 20" fill="none" xmlns="http://www.w3.org/2000/svg">
<path d="M26.7254 3.41465C26.4176 2.25565 25.5107 1.34287 24.3592 1.0331C22.272 0.470215 13.9027 0.470215 13.9027 0.470215C13.9027 0.470215 5.53344 0.470215 3.44622 1.0331C2.29472 1.34292 1.38782 2.25565 1.08001 3.41465C0.520752 5.51539 0.520752 9.8984 0.520752 9.8984C0.520752 9.8984 0.520752 14.2814 1.08001 16.3821C1.38782 17.5411 2.29472 18.4159 3.44622 18.7257C5.53344 19.2886 13.9027 19.2886 13.9027 19.2886C13.9027 19.2886 22.272 19.2886 24.3592 18.7257C25.5107 18.4159 26.4176 17.5411 26.7254 16.3821C27.2846 14.2814 27.2846 9.8984 27.2846 9.8984C27.2846 9.8984 27.2846 5.51539 26.7254 3.41465V3.41465ZM11.1655 13.8778V5.91896L18.1605 9.89849L11.1655 13.8778V13.8778Z" fill="white"/>
</svg>
