<svg width="26" height="22" viewBox="0 0 26 22" fill="none" xmlns="http://www.w3.org/2000/svg">
<path d="M22.5119 5.76912C22.5278 5.992 22.5278 6.21493 22.5278 6.43781C22.5278 13.2359 17.3536 21.069 7.89669 21.069C4.98318 21.069 2.27668 20.2251 0 18.7605C0.413954 18.8082 0.811933 18.8242 1.24181 18.8242C3.64581 18.8242 5.85882 18.0122 7.62603 16.6271C5.36528 16.5793 3.47071 15.0987 2.81795 13.0608C3.13639 13.1086 3.45478 13.1404 3.78915 13.1404C4.25084 13.1404 4.71257 13.0767 5.1424 12.9653C2.78614 12.4877 1.01889 10.418 1.01889 7.91843V7.85478C1.70345 8.23688 2.49956 8.47568 3.34329 8.50749C1.95818 7.58407 1.05074 6.00793 1.05074 4.2248C1.05074 3.26957 1.30542 2.39393 1.75123 1.62973C4.28264 4.75019 8.08772 6.78801 12.3544 7.01094C12.2748 6.62884 12.2271 6.23086 12.2271 5.83283C12.2271 2.99891 14.5197 0.69043 17.3695 0.69043C18.8501 0.69043 20.1874 1.31134 21.1268 2.31434C22.2889 2.09146 23.4034 1.66158 24.3905 1.07253C24.0084 2.26661 23.1964 3.26962 22.1298 3.9064C23.1646 3.79501 24.1676 3.50838 25.091 3.1104C24.3906 4.12928 23.5149 5.03673 22.5119 5.76913V5.76912Z" fill="white"/>
</svg>
