<svg width="23" height="23" viewBox="0 0 23 23" fill="none" xmlns="http://www.w3.org/2000/svg">
<path d="M20.6771 0.902832H1.85382C0.991314 0.902832 0.290527 1.61342 0.290527 2.48573V21.2747C0.290527 22.147 0.991314 22.8576 1.85382 22.8576H20.6771C21.5396 22.8576 22.2452 22.147 22.2452 21.2747V2.48573C22.2452 1.61342 21.5396 0.902832 20.6771 0.902832ZM6.92595 19.7212H3.67195V9.24367H6.93085V19.7212H6.92595ZM5.29895 7.81269C4.25512 7.81269 3.41221 6.96488 3.41221 5.92596C3.41221 4.88703 4.25512 4.03922 5.29895 4.03922C6.33788 4.03922 7.18568 4.88703 7.18568 5.92596C7.18568 6.96979 6.34278 7.81269 5.29895 7.81269ZM19.1236 19.7212H15.8696V14.6245C15.8696 13.4092 15.8451 11.8459 14.1788 11.8459C12.4832 11.8459 12.2235 13.1691 12.2235 14.5363V19.7212H8.9695V9.24367H12.0912V10.6746H12.1353C12.5714 9.85134 13.6349 8.98394 15.2178 8.98394C18.511 8.98394 19.1236 11.1549 19.1236 13.9777V19.7212Z" fill="white"/>
</svg>
