<svg width="32" height="42" viewBox="0 0 32 42" fill="none" xmlns="http://www.w3.org/2000/svg">
<g clip-path="url(#clip0_1_494)">
<path d="M29.8932 17.7348L25.3748 24.109C25.3492 24.1439 25.3282 24.1812 25.3095 24.2209L25.2396 24.3165L25.2256 24.3211V24.3351L19.1149 32.6351C18.3875 33.6236 17.266 34.1901 16.0397 34.1925H16.0327C14.8087 34.1925 13.6873 33.6283 12.9575 32.6444L6.45978 23.8758L2.10696 17.7324C1.64533 17.082 0.621826 17.4084 0.621826 18.2057V41.42H6.77452V33.2739L8.66533 35.8245C10.4139 38.1816 13.0974 39.5338 16.0327 39.5338H16.0467C18.9867 39.5292 21.6748 38.1699 23.4164 35.8012L25.2256 33.3438V41.42H31.3783V18.2057C31.3783 17.4084 30.3548 17.082 29.8932 17.7324V17.7348Z" fill="white"/>
<path d="M1.89483 12.4891L13.9181 29.581C14.417 30.2897 15.2354 30.7141 16.1027 30.7141H16.1377C16.998 30.7024 17.8046 30.2734 18.2942 29.5716L30.1194 12.629L30.2686 12.3912C30.9517 11.2022 31.3107 9.84526 31.3107 8.4697C31.3131 4.11922 27.7716 0.580078 23.4211 0.580078C21.838 0.580078 20.3063 1.0487 18.996 1.93698L16.0864 4.29641L13.27 2.04889L13.1091 1.92999C11.8035 1.04637 10.2787 0.580078 8.69567 0.580078C4.34285 0.580078 0.803711 4.11922 0.803711 8.4697C0.803711 9.80562 1.14643 11.1276 1.79225 12.2956L1.89716 12.4891H1.89483ZM8.69333 5.70927C9.18527 5.70927 9.66089 5.8375 10.0805 6.0823C10.1365 6.11494 10.1878 6.15224 10.2368 6.19188L15.289 10.2253C15.7739 10.6123 16.4641 10.6076 16.9443 10.216L21.8707 6.19887C21.9243 6.15457 21.9803 6.11261 22.0409 6.07997C22.4605 5.8375 22.9315 5.7116 23.4188 5.7116C24.9412 5.7116 26.1815 6.9496 26.1815 8.4697C26.1815 8.90335 26.079 9.33001 25.8924 9.70304C25.8645 9.75899 25.8295 9.81262 25.7945 9.86391L17.1728 22.2183C16.6506 22.969 15.5408 22.969 15.0139 22.2229L6.31992 9.86391L6.23599 9.73102C6.03781 9.34166 5.93057 8.90801 5.93057 8.4697C5.93057 6.94727 7.1709 5.70927 8.69333 5.70927Z" fill="white"/>
</g>
<defs>
<clipPath id="clip0_1_494">
<rect width="30.7565" height="40.84" fill="white" transform="translate(0.621826 0.580078)"/>
</clipPath>
</defs>
</svg>
