<svg width="40" height="40" viewBox="0 0 40 40" fill="none" xmlns="http://www.w3.org/2000/svg">
<path d="M16.75 4.21673L6.7167 10.7667C3.50003 12.8667 3.50003 17.5667 6.7167 19.6667L16.75 26.2167C18.55 27.4001 21.5167 27.4001 23.3167 26.2167L33.3 19.6667C36.5 17.5667 36.5 12.8834 33.3 10.7834L23.3167 4.23339C21.5167 3.03339 18.55 3.03339 16.75 4.21673Z" stroke="url(#paint0_linear_1_981)" stroke-width="2" stroke-linecap="round" stroke-linejoin="round"/>
<path d="M9.38337 21.8L9.3667 29.6167C9.3667 31.7334 11 34 13 34.6667L18.3167 36.4334C19.2334 36.7334 20.75 36.7334 21.6834 36.4334L27 34.6667C29 34 30.6334 31.7334 30.6334 29.6167V21.8834" stroke="url(#paint1_linear_1_981)" stroke-width="2" stroke-linecap="round" stroke-linejoin="round"/>
<path d="M35.6667 25V15" stroke="url(#paint2_linear_1_981)" stroke-width="2" stroke-linecap="round" stroke-linejoin="round"/>
<defs>
<linearGradient id="paint0_linear_1_981" x1="38.531" y1="27.1042" x2="-4.22921" y2="18.5557" gradientUnits="userSpaceOnUse">
<stop stop-color="#F94892"/>
<stop offset="1" stop-color="#FF7F3F"/>
</linearGradient>
<linearGradient id="paint1_linear_1_981" x1="32.551" y1="36.6584" x2="3.77943" y2="30.4245" gradientUnits="userSpaceOnUse">
<stop stop-color="#F94892"/>
<stop offset="1" stop-color="#FF7F3F"/>
</linearGradient>
<linearGradient id="paint2_linear_1_981" x1="36.7569" y1="25" x2="35.3408" y2="24.9786" gradientUnits="userSpaceOnUse">
<stop stop-color="#F94892"/>
<stop offset="1" stop-color="#FF7F3F"/>
</linearGradient>
</defs>
</svg>
